<svg xmlns="http://www.w3.org/2000/svg" xmlns:xlink="http://www.w3.org/1999/xlink" width="44.318" height="51.835" viewBox="0 0 44.318 51.835"><defs><filter id="a" x="9.692" y="30.365" width="24.939" height="21.471" filterUnits="userSpaceOnUse"><feOffset dy="3" input="SourceAlpha"/><feGaussianBlur stdDeviation="3" result="b"/><feFlood flood-opacity="0.161"/><feComposite operator="in" in2="b"/><feComposite in="SourceGraphic"/></filter><filter id="c" x="0" y="0" width="44.318" height="45.038" filterUnits="userSpaceOnUse"><feOffset dy="3" input="SourceAlpha"/><feGaussianBlur stdDeviation="3" result="d"/><feFlood flood-opacity="0.161"/><feComposite operator="in" in2="d"/><feComposite in="SourceGraphic"/></filter></defs><g transform="translate(-1572.414 -58.962)"><g transform="matrix(1, 0, 0, 1, 1572.41, 58.96)" filter="url(#a)"><path d="M450,4118h6.939a3.47,3.47,0,1,1-6.939,0Z" transform="translate(-431.31 -4081.63)" fill="#06d444"/></g><g transform="matrix(1, 0, 0, 1, 1572.41, 58.96)" filter="url(#c)"><path d="M470.222,4124.735a1.634,1.634,0,0,1-1.232,2.8H446.142a1.629,1.629,0,0,1-1.215-2.8l2.238-2.114v-8.192c0-5.048,2.828-9.243,7.807-10.356v-1.115a2.606,2.606,0,0,1,5.2,0v1.115c4.962,1.114,7.807,5.326,7.807,10.356v8.192Z" transform="translate(-435.41 -4094.5)" fill="#06d444"/></g><circle cx="4.511" cy="4.511" r="4.511" transform="translate(1598.183 60)" fill="#fa6c37"/></g></svg>